<svg width="18" height="19" viewBox="0 0 18 19" fill="none" xmlns="http://www.w3.org/2000/svg">
<g clip-path="url(#clip0)">
<path d="M11.9319 9.59733L18.0001 13.6467V5.37695L11.9319 9.59733Z" fill="#5DDAF3"/>
<path d="M0 5.37695V13.6467L6.06825 9.59733L0 5.37695Z" fill="#5DDAF3"/>
<path d="M16.8749 2.96875H1.12494C0.563566 2.96875 0.118066 3.4105 0.0336914 3.97931L8.99994 10.2149L17.9662 3.97931C17.8818 3.4105 17.4363 2.96875 16.8749 2.96875Z" fill="#5DDAF3"/>
<path d="M10.9011 10.3147L9.30926 11.4214C9.21476 11.4867 9.10789 11.5188 8.99989 11.5188C8.89189 11.5188 8.78501 11.4867 8.69051 11.4214L7.09864 10.3135L0.0358887 15.029C0.122514 15.5931 0.565764 16.0313 1.12489 16.0313H16.8749C17.434 16.0313 17.8773 15.5931 17.9639 15.029L10.9011 10.3147Z" fill="#5DDAF3"/>
</g>
<defs>
<clipPath id="clip0">
<rect width="18" height="19" fill="white"/>
</clipPath>
</defs>
</svg>
