<svg width="32" height="31" viewBox="0 0 32 31" fill="none" xmlns="http://www.w3.org/2000/svg">
<circle cx="16.0764" cy="15.4153" r="15.4153" fill="#5DDAF3"/>
<g clip-path="url(#clip0)">
<path d="M12.9501 20.9995V12.9031H10.1634V20.9995H12.9501ZM11.5571 11.797C12.5289 11.797 13.1338 11.1753 13.1338 10.3984C13.1157 9.60396 12.529 8.99951 11.5756 8.99951C10.6224 8.99951 9.99902 9.60398 9.99902 10.3984C9.99902 11.1754 10.6038 11.797 11.539 11.797H11.5571H11.5571ZM14.4926 20.9995H17.2793V16.4781C17.2793 16.2361 17.2974 15.9944 17.371 15.8214C17.5724 15.3379 18.0309 14.8372 18.8007 14.8372C19.8091 14.8372 20.2125 15.5797 20.2125 16.6681V20.9995H22.9991V16.3571C22.9991 13.8702 21.6243 12.7131 19.7908 12.7131C18.2875 12.7131 17.6274 13.5245 17.2607 14.0772H17.2793V12.903H14.4926C14.5292 13.6627 14.4926 20.9994 14.4926 20.9994L14.4926 20.9995Z" fill="#061723"/>
</g>
<defs>
<clipPath id="clip0">
<rect width="13" height="12" fill="white" transform="translate(10 9)"/>
</clipPath>
</defs>
</svg>
