<svg width="90" height="90" viewBox="0 0 90 90" fill="none" xmlns="http://www.w3.org/2000/svg">
<rect x="15" width="61" height="61" rx="30.5" fill="#7197CD"/>
<g filter="url(#filter0_f)">
<rect x="27" y="27" width="36" height="36" rx="18" fill="#7197CD"/>
</g>
<path d="M37.0067 39.3324C41.217 39.3409 43.7312 36.017 43.7312 30.2898C43.7312 24.5966 41.1999 21.3068 37.0067 21.3068C32.8136 21.3068 30.2908 24.5881 30.2823 30.2898C30.2823 36.0085 32.7965 39.3324 37.0067 39.3324ZM37.0067 36.6648C34.8335 36.6648 33.4698 34.483 33.4783 30.2898C33.4869 26.1307 34.842 23.9403 37.0067 23.9403C39.18 23.9403 40.5352 26.1307 40.5437 30.2898C40.5437 34.483 39.1886 36.6648 37.0067 36.6648ZM46.2475 35.7614H54.5742V39H57.5913V35.7614H59.8242V33.1619H57.5913V21.5455H53.6538L46.2475 33.2472V35.7614ZM54.6083 33.1619H49.4862V33.0256L54.4719 25.125H54.6083V33.1619Z" fill="white"/>
<defs>
<filter id="filter0_f" x="0" y="0" width="90" height="90" filterUnits="userSpaceOnUse" color-interpolation-filters="sRGB">
<feFlood flood-opacity="0" result="BackgroundImageFix"/>
<feBlend mode="normal" in="SourceGraphic" in2="BackgroundImageFix" result="shape"/>
<feGaussianBlur stdDeviation="13.5" result="effect1_foregroundBlur"/>
</filter>
</defs>
</svg>
