<svg width="90" height="90" viewBox="0 0 90 90" fill="none" xmlns="http://www.w3.org/2000/svg">
<rect x="15" width="61" height="61" rx="30.5" fill="#1252AB"/>
<g filter="url(#filter0_f)">
<rect x="27" y="27" width="36" height="36" rx="18" fill="#1252AB"/>
</g>
<path d="M39.2333 39.3324C43.4435 39.3409 45.9577 36.017 45.9577 30.2898C45.9577 24.5966 43.4265 21.3068 39.2333 21.3068C35.0401 21.3068 32.5174 24.5881 32.5089 30.2898C32.5089 36.0085 35.0231 39.3324 39.2333 39.3324ZM39.2333 36.6648C37.06 36.6648 35.6964 34.483 35.7049 30.2898C35.7134 26.1307 37.0685 23.9403 39.2333 23.9403C41.4066 23.9403 42.7617 26.1307 42.7702 30.2898C42.7702 34.483 41.4151 36.6648 39.2333 36.6648ZM55.8888 21.5455H52.8803L48.5423 24.3324V27.2301L52.6246 24.6222H52.7269V39H55.8888V21.5455Z" fill="white"/>
<defs>
<filter id="filter0_f" x="0" y="0" width="90" height="90" filterUnits="userSpaceOnUse" color-interpolation-filters="sRGB">
<feFlood flood-opacity="0" result="BackgroundImageFix"/>
<feBlend mode="normal" in="SourceGraphic" in2="BackgroundImageFix" result="shape"/>
<feGaussianBlur stdDeviation="13.5" result="effect1_foregroundBlur"/>
</filter>
</defs>
</svg>
