<svg width="90" height="90" viewBox="0 0 90 90" fill="none" xmlns="http://www.w3.org/2000/svg">
<rect x="15" width="61" height="61" rx="30.5" fill="#7197CD"/>
<g filter="url(#filter0_f)">
<rect x="27" y="27" width="36" height="36" rx="18" fill="#7197CD"/>
</g>
<path d="M38.1825 38.3324C42.3928 38.3409 44.907 35.017 44.907 29.2898C44.907 23.5966 42.3757 20.3068 38.1825 20.3068C33.9893 20.3068 31.4666 23.5881 31.4581 29.2898C31.4581 35.0085 33.9723 38.3324 38.1825 38.3324ZM38.1825 35.6648C36.0092 35.6648 34.6456 33.483 34.6541 29.2898C34.6626 25.1307 36.0178 22.9403 38.1825 22.9403C40.3558 22.9403 41.7109 25.1307 41.7195 29.2898C41.7195 33.483 40.3643 35.6648 38.1825 35.6648ZM54.0028 38.2386C57.7358 38.2386 60.4545 36.0994 60.446 33.1506C60.4545 30.9688 59.0909 29.4006 56.6449 29.0511V28.9148C58.5369 28.5057 59.8068 27.0994 59.7983 25.1392C59.8068 22.4801 57.5398 20.3068 54.054 20.3068C50.6619 20.3068 48.0369 22.3267 47.9688 25.25H51.0114C51.0625 23.7841 52.4261 22.8722 54.0369 22.8722C55.6648 22.8722 56.7472 23.8608 56.7386 25.3267C56.7472 26.8523 55.4858 27.8665 53.679 27.8665H52.1364V30.304H53.679C55.8864 30.304 57.1989 31.4119 57.1903 32.9886C57.1989 34.5312 55.8608 35.5881 53.9943 35.5881C52.2386 35.5881 50.8835 34.6761 50.8068 33.2528H47.6023C47.6875 36.2017 50.321 38.2386 54.0028 38.2386Z" fill="white"/>
<defs>
<filter id="filter0_f" x="0" y="0" width="90" height="90" filterUnits="userSpaceOnUse" color-interpolation-filters="sRGB">
<feFlood flood-opacity="0" result="BackgroundImageFix"/>
<feBlend mode="normal" in="SourceGraphic" in2="BackgroundImageFix" result="shape"/>
<feGaussianBlur stdDeviation="13.5" result="effect1_foregroundBlur"/>
</filter>
</defs>
</svg>
