<svg width="90" height="90" viewBox="0 0 90 90" fill="none" xmlns="http://www.w3.org/2000/svg">
<rect x="15" width="61" height="61" rx="30.5" fill="#1252AB"/>
<g filter="url(#filter0_f)">
<rect x="27" y="27" width="36" height="36" rx="18" fill="#1252AB"/>
</g>
<path d="M44.7776 19.4448C37.7157 19.4448 32 25.1592 32 32.2222C32 35.351 33.1164 38.3076 35.1611 40.6372C35.2304 40.5678 45.5253 30.2731 45.6272 30.1713C45.6272 28.9535 45.6272 21.5254 45.6272 20.2945C45.6272 19.8254 45.2465 19.4448 44.7776 19.4448Z" fill="white"/>
<path d="M45.1253 44.9945V33.0758L36.363 41.8385C38.8458 44.0176 41.9827 45.087 45.1253 44.9945Z" fill="white"/>
<path d="M56.7054 31.3726H46.8284L46.8245 44.837C49.45 44.4176 51.8842 43.1863 53.8122 41.2574C56.2257 38.844 57.555 35.6353 57.555 32.2222C57.555 31.7532 57.1744 31.3726 56.7054 31.3726Z" fill="white"/>
<path d="M57.2571 19.7428C54.8436 17.3294 51.6349 16 48.2223 16C47.7527 16 47.3727 16.3806 47.3727 16.8496V28.7774C47.3727 29.2454 47.7513 29.627 48.2223 29.627H60.1504C60.6193 29.627 61 29.2469 61 28.7774C61 25.3648 59.6706 22.1562 57.2571 19.7428Z" fill="white"/>
<defs>
<filter id="filter0_f" x="0" y="0" width="90" height="90" filterUnits="userSpaceOnUse" color-interpolation-filters="sRGB">
<feFlood flood-opacity="0" result="BackgroundImageFix"/>
<feBlend mode="normal" in="SourceGraphic" in2="BackgroundImageFix" result="shape"/>
<feGaussianBlur stdDeviation="13.5" result="effect1_foregroundBlur"/>
</filter>
</defs>
</svg>
