<svg width="90" height="90" viewBox="0 0 90 90" fill="none" xmlns="http://www.w3.org/2000/svg">
<rect x="15" width="61" height="61" rx="30.5" fill="#1252AB"/>
<g filter="url(#filter0_f)">
<rect x="27" y="27" width="36" height="36" rx="18" fill="#1252AB"/>
</g>
<g clip-path="url(#clip0)">
<path d="M58.4465 17.0034C53.1759 16.9089 47.165 19.664 43.3602 23.9379C39.7242 24.0065 36.1839 25.4971 33.5772 28.1037C33.4254 28.2534 33.3714 28.4772 33.4377 28.6797C33.5052 28.8834 33.6807 29.0307 33.8922 29.0611L38.228 29.6821L37.6925 30.2817C37.4934 30.5045 37.5035 30.8431 37.715 31.0546L44.9454 38.285C45.0545 38.3941 45.1985 38.4492 45.3436 38.4492C45.4775 38.4492 45.6114 38.402 45.7182 38.3064L46.3179 37.7709L46.9389 42.1066C46.9692 42.3181 47.1357 42.4734 47.3371 42.5409C47.3889 42.5577 47.4429 42.5656 47.498 42.5656C47.6577 42.5656 47.8209 42.4959 47.9334 42.3845C50.504 39.8139 51.9946 36.2735 52.0632 32.6375C56.3416 28.8249 59.1192 22.8162 58.9966 17.5524C58.9887 17.2531 58.7469 17.0112 58.4465 17.0034ZM53.2625 26.7144C52.7146 27.2622 51.9946 27.5367 51.2735 27.5367C50.5524 27.5367 49.8324 27.2622 49.2845 26.7144C48.1887 25.6175 48.1887 23.8332 49.2845 22.7364C50.3814 21.6395 52.1656 21.6395 53.2625 22.7364C54.3594 23.8332 54.3594 25.6186 53.2625 26.7144Z" fill="white"/>
<path d="M35.0646 36.0181C33.8608 37.2219 32.2082 42.6601 32.0237 43.2755C31.9641 43.4735 32.0192 43.6884 32.1643 43.8346C32.2723 43.9426 32.4152 44 32.5626 44C32.6166 44 32.6706 43.9921 32.7246 43.9764C33.3399 43.7919 38.7782 42.1393 39.9819 40.9355C41.3376 39.5799 41.3376 37.3738 39.9819 36.0181C38.6252 34.6625 36.4202 34.6636 35.0646 36.0181Z" fill="white"/>
</g>
<defs>
<filter id="filter0_f" x="0" y="0" width="90" height="90" filterUnits="userSpaceOnUse" color-interpolation-filters="sRGB">
<feFlood flood-opacity="0" result="BackgroundImageFix"/>
<feBlend mode="normal" in="SourceGraphic" in2="BackgroundImageFix" result="shape"/>
<feGaussianBlur stdDeviation="13.5" result="effect1_foregroundBlur"/>
</filter>
<clipPath id="clip0">
<rect width="27" height="27" fill="white" transform="translate(32 17)"/>
</clipPath>
</defs>
</svg>
