<svg width="90" height="90" viewBox="0 0 90 90" fill="none" xmlns="http://www.w3.org/2000/svg">
<rect x="15" width="61" height="61" rx="30.5" fill="#1252AB"/>
<g filter="url(#filter0_f)">
<rect x="27" y="27" width="36" height="36" rx="18" fill="#1252AB"/>
</g>
<g clip-path="url(#clip0)">
<path d="M49.1251 23.8542C48.4581 23.8542 47.9167 23.3128 47.9167 22.6458V20.8333H43.0834V22.6458C43.0834 23.3128 42.5421 23.8542 41.8751 23.8542C41.2081 23.8542 40.6667 23.3128 40.6667 22.6458V20.8333C40.6667 19.5005 41.7506 18.4167 43.0834 18.4167H47.9167C49.2495 18.4167 50.3334 19.5005 50.3334 20.8333V22.6458C50.3334 23.3128 49.7921 23.8542 49.1251 23.8542Z" fill="white"/>
<path d="M46.3579 34.5842C46.1404 34.6687 45.8263 34.7292 45.5 34.7292C45.1738 34.7292 44.8596 34.6687 44.5696 34.56L31 30.0408V39.2604C31 41.0971 32.4863 42.5833 34.3229 42.5833H56.6771C58.5138 42.5833 60 41.0971 60 39.2604V30.0408L46.3579 34.5842Z" fill="white"/>
<path d="M60 25.3646V28.1317L45.79 32.8683C45.6933 32.9046 45.5967 32.9167 45.5 32.9167C45.4033 32.9167 45.3067 32.9046 45.21 32.8683L31 28.1317V25.3646C31 23.5279 32.4863 22.0417 34.3229 22.0417H56.6771C58.5138 22.0417 60 23.5279 60 25.3646Z" fill="white"/>
</g>
<defs>
<filter id="filter0_f" x="0" y="0" width="90" height="90" filterUnits="userSpaceOnUse" color-interpolation-filters="sRGB">
<feFlood flood-opacity="0" result="BackgroundImageFix"/>
<feBlend mode="normal" in="SourceGraphic" in2="BackgroundImageFix" result="shape"/>
<feGaussianBlur stdDeviation="13.5" result="effect1_foregroundBlur"/>
</filter>
<clipPath id="clip0">
<rect width="29" height="29" fill="white" transform="translate(31 16)"/>
</clipPath>
</defs>
</svg>
