<svg width="90" height="90" viewBox="0 0 90 90" fill="none" xmlns="http://www.w3.org/2000/svg">
<rect x="15" width="61" height="61" rx="30.5" fill="#1252AB"/>
<g filter="url(#filter0_f)">
<rect x="27" y="27" width="36" height="36" rx="18" fill="#1252AB"/>
</g>
<path d="M49.9747 33.1788C48.9824 33.1788 48.175 33.986 48.175 34.9783C48.175 35.9708 48.9824 36.7782 49.9747 36.7782C50.9671 36.7782 51.7741 35.9708 51.7741 34.9783C51.7739 33.986 50.9669 33.1788 49.9747 33.1788Z" fill="white"/>
<path d="M41.0054 24.2102C40.013 24.2102 39.2055 25.0176 39.2055 26.0101C39.2057 27.0021 40.0132 27.8093 41.0054 27.8093C41.9977 27.8093 42.8047 27.0021 42.8047 26.0101C42.8047 25.0176 41.9977 24.2102 41.0054 24.2102Z" fill="white"/>
<path d="M45.5011 15C36.9541 15 30.0011 21.953 30.0011 30.5C30.0011 39.0466 36.9541 46 45.5011 46C54.0472 46 60.9997 39.0466 60.9997 30.5C60.9997 21.953 54.0472 15 45.5011 15ZM41.0059 22.2712C43.0669 22.2712 44.7443 23.9481 44.7443 26.0101C44.7443 28.0711 43.0669 29.7485 41.0059 29.7485C38.9441 29.7485 37.267 28.0711 37.267 26.0101C37.267 23.9481 38.9444 22.2712 41.0059 22.2712ZM39.8693 37.5021C39.6804 37.6915 39.4317 37.7865 39.1839 37.7865C38.9359 37.7865 38.6877 37.6915 38.4983 37.5021C38.1197 37.1236 38.1197 36.5094 38.4983 36.1313L51.1315 23.4976C51.5098 23.1191 52.1237 23.1191 52.5025 23.4976C52.8811 23.8762 52.8811 24.4904 52.5025 24.8687L39.8693 37.5021ZM49.9751 38.7169C47.9136 38.7169 46.2362 37.0398 46.2362 34.978C46.2362 32.917 47.9136 31.2396 49.9751 31.2396C52.0363 31.2396 53.7135 32.917 53.7135 34.978C53.7132 37.0398 52.0361 38.7169 49.9751 38.7169Z" fill="white"/>
<defs>
<filter id="filter0_f" x="0" y="0" width="90" height="90" filterUnits="userSpaceOnUse" color-interpolation-filters="sRGB">
<feFlood flood-opacity="0" result="BackgroundImageFix"/>
<feBlend mode="normal" in="SourceGraphic" in2="BackgroundImageFix" result="shape"/>
<feGaussianBlur stdDeviation="13.5" result="effect1_foregroundBlur"/>
</filter>
</defs>
</svg>
