<svg width="90" height="90" viewBox="0 0 90 90" fill="none" xmlns="http://www.w3.org/2000/svg">
<rect x="15" width="61" height="61" rx="30.5" fill="#1252AB"/>
<g filter="url(#filter0_f)">
<rect x="27" y="27" width="36" height="36" rx="18" fill="#1252AB"/>
</g>
<g clip-path="url(#clip0)">
<path d="M39.5448 22.6366V28.9528C39.5448 31.5363 41.7894 34.2867 43.1275 35.6963C43.9759 36.5901 44.9399 37.4723 46.0001 38.3255C47.0603 37.4723 48.0244 36.59 48.8728 35.6963C50.2108 34.2868 52.4554 31.5363 52.4554 28.9528V22.6366L46.0002 20.7043L39.5448 22.6366Z" fill="white"/>
<path d="M57.6305 18.4378L46.2847 15.0416C46.0995 14.9861 45.9007 14.9861 45.7156 15.0416L34.3697 18.4378C33.9809 18.5542 33.7168 18.8937 33.7168 19.2772V28.9529C33.7168 36.79 43.1136 43.3293 45.4695 44.8456C45.7895 45.0515 46.2108 45.0515 46.5308 44.8456C48.8866 43.3293 58.2835 36.79 58.2835 28.9529V19.2772C58.2834 18.8937 58.0194 18.5542 57.6305 18.4378ZM54.3305 28.9528C54.3305 31.962 52.1235 34.9188 50.272 36.8693C49.0271 38.1807 47.7114 39.2967 46.5942 40.1559C46.2484 40.4218 45.7519 40.4218 45.406 40.1559C44.2889 39.2967 42.9731 38.1807 41.7282 36.8693C39.8768 34.9188 37.6697 31.9621 37.6697 28.9528V21.9926C37.6697 21.609 37.9338 21.2695 38.3227 21.1532L45.7155 18.9403C45.9006 18.8848 46.0994 18.8848 46.2845 18.9403L53.6774 21.1532C54.0662 21.2696 54.3304 21.6091 54.3304 21.9926V28.9528H54.3305Z" fill="white"/>
</g>
<defs>
<filter id="filter0_f" x="0" y="0" width="90" height="90" filterUnits="userSpaceOnUse" color-interpolation-filters="sRGB">
<feFlood flood-opacity="0" result="BackgroundImageFix"/>
<feBlend mode="normal" in="SourceGraphic" in2="BackgroundImageFix" result="shape"/>
<feGaussianBlur stdDeviation="13.5" result="effect1_foregroundBlur"/>
</filter>
<clipPath id="clip0">
<rect width="32" height="30" fill="white" transform="translate(30 15)"/>
</clipPath>
</defs>
</svg>
