<svg width="32" height="31" viewBox="0 0 32 31" fill="none" xmlns="http://www.w3.org/2000/svg">
<circle cx="16.2458" cy="15.4153" r="15.4153" fill="#5DDAF3"/>
<path d="M23.4062 11.2222C22.8982 11.4413 22.3454 11.599 21.7759 11.6604C22.3671 11.3092 22.8099 10.7543 23.021 10.0999C22.4663 10.4299 21.8585 10.6613 21.2248 10.7839C20.9599 10.5007 20.6395 10.2751 20.2836 10.1211C19.9277 9.9672 19.544 9.88819 19.1562 9.88904C17.5874 9.88904 16.3256 11.1607 16.3256 12.7213C16.3256 12.9404 16.3522 13.1596 16.3954 13.3704C14.0462 13.2475 11.9511 12.1253 10.5583 10.407C10.3045 10.8405 10.1715 11.3341 10.1731 11.8364C10.1731 12.8192 10.6728 13.6858 11.4348 14.1955C10.9857 14.1778 10.5472 14.0544 10.1548 13.8352V13.8701C10.1548 15.2464 11.1277 16.3869 12.4243 16.6492C12.1808 16.7124 11.9304 16.7448 11.6789 16.7455C11.4946 16.7455 11.3203 16.7272 11.1443 16.7023C11.5029 17.8246 12.5471 18.6397 13.7906 18.6663C12.8177 19.4283 11.5992 19.8765 10.276 19.8765C10.0386 19.8765 9.81948 19.8682 9.59204 19.8417C10.8471 20.6469 12.3363 21.1117 13.94 21.1117C19.1462 21.1117 21.9951 16.7986 21.9951 13.055C21.9951 12.9321 21.9951 12.8093 21.9868 12.6864C22.5379 12.283 23.021 11.7833 23.4062 11.2222Z" fill="#061723"/>
</svg>
